<?xml version="1.0" encoding="iso-8859-1"?>
<!-- Uploaded to: SVG Repo, www.svgrepo.com, Generator: SVG Repo Mixer Tools -->
<svg fill="#ffffff" version="1.1" id="Layer_1" xmlns="http://www.w3.org/2000/svg" xmlns:xlink="http://www.w3.org/1999/xlink" 
	 viewBox="0 0 511.999 511.999" xml:space="preserve">
<g>
	<g>
		<path d="M452.631,0H59.369c-8.375,0-15.187,6.713-15.187,14.964v353.01c0,8.251,6.813,14.965,15.187,14.965h126.315v27.765
			l45.999,101.295h143.982l26.611-51.594v-77.466h50.356c8.374,0,15.186-6.714,15.186-14.965V14.964
			C467.817,6.713,461.005,0,452.631,0z M386.467,456.568h-0.002l-20.436,39.623H241.865l-40.373-88.907v-97.847
			c7.71-0.503,18.813-0.1,24.246,4.458c1.458,1.223,3.13,3.185,3.13,7.616l0.365,45.68l15.809-0.056l0.073-78.5l0.073-36.224
			l0.073-52.751c0-3.467,4.998-7.346,11.686-7.346c6.729,0,11.759,3.878,11.759,7.334l-0.073,52.17l-0.073,35.388v26.616h15.809
			v-26.599l0.146-0.017c0-3.467,4.998-7.346,11.686-7.346c3.087,0,6.049,0.878,8.125,2.41l0.102,0.073
			c1.874,1.337,2.949,3.109,2.949,4.862h0.009v30.42h15.809v-30.45h-0.006c0.033-3.322,5.49-7.315,12.266-7.315
			c6.685,0,11.176,3.798,11.176,7.346h0.017v30.42h15.809v-30.575c0.177-4.18,7.372-7.191,12.252-7.191
			c6.73,0,11.759,3.729,11.759,7.062V456.568z M256.946,176.505c-15.161,0-27.495,10.387-27.495,23.143l-0.064,41.17
			c-18.684-9.475-31.026-28.507-31.026-49.347c0-30.678,25.856-55.637,57.639-55.637c31.783,0,57.639,24.959,57.639,55.637
			c0,20.372-11.371,38.706-29.187,48.426l0.062-40.236C284.514,186.892,272.147,176.505,256.946,176.505z M284.425,257.379
			c27.156-11.031,45.022-36.843,45.022-65.909c0-39.396-32.949-71.446-73.448-71.446c-40.5,0-73.448,32.05-73.448,71.446
			c0,15.753,5.162,30.69,14.93,43.192c8.176,10.469,19.343,18.632,31.878,23.408l-0.033,20.598
			c-39.556-11.246-67.38-46.547-67.38-87.199c0-50.143,42.191-90.938,94.052-90.938s94.052,40.795,94.052,90.938
			c0,30.449-15.339,58.255-41.249,75.248c-3.831-1.725-8.148-2.666-12.603-2.666c-4.217,0-8.214,0.803-11.789,2.238L284.425,257.379
			z M402.272,338.89v-51.967c0.002-12.611-12.365-22.872-27.566-22.872c-7.649,0-14.701,2.678-19.826,6.936
			c-4.629-4.085-11.046-6.663-18.279-6.912c18.659-19.45,29.259-45.099,29.259-72.606c0-58.861-49.284-106.747-109.861-106.747
			c-60.578,0-109.861,47.887-109.861,106.747c0,49.246,34.599,91.781,83.163,103.529l-0.004,2.661
			c-14.598-6.72-34.529-3.511-37.085-3.06l-6.53,1.153v43.136H89.119V44.049h333.756v294.84H402.272z M402.275,367.131v-12.432
			h36.413V28.24H73.312v326.458h112.371v12.432H59.991V15.809h392.018v351.322H402.275z"/>
	</g>
</g>
<g>
	<g>
		<polygon points="102.442,56.482 102.442,106.747 118.251,106.747 118.251,72.291 139.478,72.291 139.478,56.482 		"/>
	</g>
</g>
<g>
	<g>
		<rect x="103.064" y="120.022" width="14.565" height="15.809"/>
	</g>
</g>
<g>
	<g>
		<rect x="103.064" y="310.648" width="14.565" height="15.809"/>
	</g>
</g>
<g>
	<g>
		<rect x="103.064" y="282.403" width="14.565" height="15.809"/>
	</g>
</g>
<g>
	<g>
		<rect x="132.195" y="310.648" width="14.565" height="15.809"/>
	</g>
</g>
<g>
	<g>
		<rect x="394.373" y="56.482" width="14.564" height="15.809"/>
	</g>
</g>
<g>
	<g>
		<rect x="365.242" y="56.482" width="14.564" height="15.809"/>
	</g>
</g>
<g>
	<g>
		<rect x="394.373" y="84.726" width="14.564" height="15.809"/>
	</g>
</g>
</svg>